<svg width="849" height="231" viewBox="0 0 849 231" fill="none" xmlns="http://www.w3.org/2000/svg">
<mask id="path-1-inside-1_417_63" fill="white">
<path d="M-2.01947e-05 0.000106812C-9.04145e-06 127.578 103.422 231 231 231L1206 231L1206 1.37965e-06L-2.01947e-05 0.000106812V0.000106812Z"/>
</mask>
<path d="M-2.00002 0.000106986C-2.00001 128.682 102.318 233 231 233L1206 233L1206 229L231 229C104.527 229 1.99999 126.473 1.99998 0.000106637L-2.00002 0.000106986ZM1206 1.37965e-06L-2.01947e-05 0.000106812L1206 1.37965e-06ZM-2.00002 0.000106986C-2.00001 128.682 102.318 233 231 233L231 229C104.527 229 1.99999 126.473 1.99998 0.000106637L-2.00002 0.000106986ZM1206 231L1206 1.37965e-06L1206 231Z" fill="white" mask="url(#path-1-inside-1_417_63)"/>
</svg>
