<svg width="230" height="215" viewBox="0 0 230 215" fill="none" xmlns="http://www.w3.org/2000/svg">
<mask id="path-1-inside-1_417_64" fill="white">
<path d="M230 231C230 103.422 126.578 9.04146e-06 -0.999975 2.01947e-05L-976 0.000105432L-976 231L230 231V231Z"/>
</mask>
<path d="M232 231C232 102.318 127.682 -1.99999 -0.999893 -1.99998L-976 -1.99989L-976 2.00011L-0.999893 2.00002C125.473 2.00001 228 104.527 228 231L232 231ZM-976 231L230 231L-976 231ZM232 231C232 102.318 127.682 -1.99999 -0.999893 -1.99998L-0.999893 2.00002C125.473 2.00001 228 104.527 228 231L232 231ZM-976 0.000105432L-976 231L-976 0.000105432Z" fill="white" mask="url(#path-1-inside-1_417_64)"/>
</svg>
