<?xml version="1.0" encoding="UTF-8"?>
<!DOCTYPE svg PUBLIC "-//W3C//DTD SVG 1.1//EN" "http://www.w3.org/Graphics/SVG/1.1/DTD/svg11.dtd">
<!-- Creator: CorelDRAW -->
<svg xmlns="http://www.w3.org/2000/svg" xml:space="preserve" width="95.6741mm" height="93.3807mm" version="1.1" style="shape-rendering:geometricPrecision; text-rendering:geometricPrecision; image-rendering:optimizeQuality; fill-rule:evenodd; clip-rule:evenodd"
viewBox="0 0 1795.58 1752.54"
 xmlns:xlink="http://www.w3.org/1999/xlink"
 xmlns:xodm="http://www.corel.com/coreldraw/odm/2003">
 <defs>
  <style type="text/css">
   <![CDATA[
    .str0 {stroke:white;stroke-width:37.54;stroke-linecap:round;stroke-linejoin:round;stroke-miterlimit:22.9256}
    .fil0 {fill:none}
    .fil1 {fill:white}
   ]]>
  </style>
 </defs>
 <g id="Layer_x0020_1">
  <metadata id="CorelCorpID_0Corel-Layer"/>
  <g id="_105553159249600">
   <g>
    <path class="fil0 str0" d="M697.97 1384.72c-484,127.78 -313.95,-351.21 -111.1,-159.73 32.61,30.79 91.65,109.27 111.1,159.73zm269.3 -133.96l2.51 4.37c-0.3,-0.52 -3.47,-3 -2.51,-4.37zm-155.22 -463.38c-29.23,-9.88 -44.33,-32.01 -57.37,-67.68 -12.62,-34.52 -9.75,-66.08 -2.74,-103.5 36.39,0.29 66,31.16 76.01,62.61 15.46,48.56 -1.17,74.25 -15.91,108.56zm352.64 74.97c21.75,-54.84 175.41,-201.8 235.12,-240.08 47.83,-30.67 90.48,-61.84 153.59,-84.77 207.37,-75.34 292.39,21.19 154.51,147.87 -121.19,111.36 -372.54,172.34 -543.22,176.98zm-303.82 -382.38c20.48,16.37 112.69,145 120.01,158.63 41.96,78.21 56.25,119.56 33.46,219.63 -73.99,-2.46 -151,-25.54 -197.49,-65.18 56.39,-93.89 26.5,-163.65 -52.78,-208.3 24.03,-42.98 53.88,-85.58 96.8,-104.79zm-17.04 -25.84c-18.06,18.12 -47.11,34.95 -64.18,51.22 -22.06,21.02 -34.71,37.47 -49.99,66.37 -117.32,-17.76 -195.84,-12.98 -296.32,37.64 -82.91,41.77 -135.75,92.03 -162.64,201.2 -84.96,-32.6 -170.01,-83.2 -225.8,-155.92l-12.94 -20.7c-0.97,-1.53 -1.92,-3.16 -2.9,-4.67l-10.29 -14.38c18.9,92.39 99.34,138.98 174.17,176.19 23.35,11.61 53.82,23.95 75.43,40.65 2.64,87.2 36.48,138.16 101.37,182.16 108.78,73.76 208.03,39.23 321.14,58.74 -9.64,-6.8 -0.11,-3.43 -16.18,-6.89 -31.14,-6.7 -394.58,29.5 -390.29,-229.82 48.51,16.95 101.66,37.36 149.11,41.65 -39.06,-18.86 -103.74,-30.53 -144.11,-59.1 23.06,-181.49 281.05,-234.09 428.98,-218.9 -9.34,64.91 0.14,118.53 41.82,167.38 17.06,20 25.7,17.19 35.29,39.29 -23.18,16.19 -42.92,32.62 -69.87,50.85 38.69,-13.07 54.53,-31.45 82.26,-49.71 26.81,13.23 57.7,28.24 92.59,37.86 27.95,7.71 72.08,12.23 101.88,23.95 1.14,0.45 3.31,1.31 4.79,2.27 -24.71,55.21 -73.82,96.72 -120.02,125.7 -82.74,51.9 -120.99,37.29 -186.2,66.15 75.74,-0.79 139.15,-24.12 198.15,-61.25l75.22 -56.93c20.47,-19.94 34.61,-46.65 58.77,-75.61l53.68 1.75c-165.74,245.26 -162.87,405.4 -171.28,418.47 -1.22,1.14 -3.24,1.07 -3.86,3.19 -0.62,2.11 -3.03,2.5 -3.9,3.11l-75.37 38.42c-27.55,12.87 -63.72,33.08 -97.3,34.68 -46.08,-50.17 -77.62,-115.94 -130.12,-155.54 -182.6,-137.72 -317.93,116.14 -145.74,185.06 81.41,32.58 165.13,-2.11 242.74,-10.28 39.07,43.59 62.83,106.08 98.49,153.18 37.36,49.35 75.76,86.92 125.14,126.55 100.67,80.79 280.69,90.4 381.49,9.86 -34.63,32.25 -118.7,51.81 -181.39,50.58 -225.01,-4.44 -303.86,-273.62 -385.15,-342.74 10.18,-15.04 1.4,-6.31 16.48,-16.2 0.62,-0.41 21.45,-9.24 23.59,-10.11 44.42,-18.01 93.99,-52.23 138.14,-59.95 1.7,97.23 26.92,146.6 79.17,190.39l7.1 5.9c59.54,46.21 152.65,22.02 212.34,21.75 -38.01,1.46 -72.5,8.75 -118.19,4.57 -23.73,-2.17 -32.97,-5.31 -53.16,-14.47 -95.54,-43.36 -103.59,-191.4 -81.18,-232.11 29.12,-52.91 453.89,-219.02 447.57,39.84 -1.83,74.79 -40.19,107.87 -80.58,149.01 150.49,-87.13 121.18,-374.8 -193.88,-275.18 -30.96,9.79 -52.94,18.02 -80.62,31.46 -26.8,13.01 -54.35,33.9 -84.34,34.71 -4.94,-55.97 47.71,-161.11 70.52,-207.89 14.2,-29.12 33.15,-62.01 50.09,-89.24 19.8,-31.82 44.67,-59.79 57.19,-86.86 151.43,-5.31 306.55,-37.44 428.31,-95.99 59.28,-28.51 117.6,-66.47 152.55,-105.83 34.08,-38.38 85.37,-132.71 -7.07,-157.54 -124.9,-33.55 -323.68,66.97 -394.41,120.1 -60.64,45.54 -119.83,96.57 -171.05,153.23 -33.64,37.21 -49.56,88.63 -112.75,76.7 -9.91,-15.62 13.16,-91.49 13.39,-116.48 1.39,-146.64 -92.61,-204.96 -140.89,-297.75 64.12,-15.92 123.6,-32.89 193.85,-13.78 60.9,16.57 102.91,58.8 63.16,136.29 49.18,-76.97 -5.26,-131.34 -77.17,-148.61 -37.22,-8.94 -87.89,-9.02 -126.39,-3.61 -93.41,13.13 -69.67,23.36 -123.99,-57.51 -31.46,-46.83 -61.4,-94.29 -53.59,-157.97 19.47,-158.65 259.72,-206.84 376.63,-158.92 173.07,70.93 11.66,280.24 -170.83,244.68 -95.78,-18.66 -93.59,-95.5 -6.03,-144.53 -134.39,26.2 -84.11,235.48 133.39,159.99 134.36,-46.64 181.59,-210.67 49.1,-265.04 -190.32,-78.11 -568.58,72.01 -333.12,415.27z"/>
    <path id="_1" class="fil1" d="M697.97 1384.72c-484,127.78 -313.95,-351.21 -111.1,-159.73 32.61,30.79 91.65,109.27 111.1,159.73zm269.3 -133.96l2.51 4.37c-0.3,-0.52 -3.47,-3 -2.51,-4.37zm-155.22 -463.38c-29.23,-9.88 -44.33,-32.01 -57.37,-67.68 -12.62,-34.52 -9.75,-66.08 -2.74,-103.5 36.39,0.29 66,31.16 76.01,62.61 15.46,48.56 -1.17,74.25 -15.91,108.56zm352.64 74.97c21.75,-54.84 175.41,-201.8 235.12,-240.08 47.83,-30.67 90.48,-61.84 153.59,-84.77 207.37,-75.34 292.39,21.19 154.51,147.87 -121.19,111.36 -372.54,172.34 -543.22,176.98zm-303.82 -382.38c20.48,16.37 112.69,145 120.01,158.63 41.96,78.21 56.25,119.56 33.46,219.63 -73.99,-2.46 -151,-25.54 -197.49,-65.18 56.39,-93.89 26.5,-163.65 -52.78,-208.3 24.03,-42.98 53.88,-85.58 96.8,-104.79zm-17.04 -25.84c-18.06,18.12 -47.11,34.95 -64.18,51.22 -22.06,21.02 -34.71,37.47 -49.99,66.37 -117.32,-17.76 -195.84,-12.98 -296.32,37.64 -82.91,41.77 -135.75,92.03 -162.64,201.2 -84.96,-32.6 -170.01,-83.2 -225.8,-155.92l-12.94 -20.7c-0.97,-1.53 -1.92,-3.16 -2.9,-4.67l-10.29 -14.38c18.9,92.39 99.34,138.98 174.17,176.19 23.35,11.61 53.82,23.95 75.43,40.65 2.64,87.2 36.48,138.16 101.37,182.16 108.78,73.76 208.03,39.23 321.14,58.74 -9.64,-6.8 -0.11,-3.43 -16.18,-6.89 -31.14,-6.7 -394.58,29.5 -390.29,-229.82 48.51,16.95 101.66,37.36 149.11,41.65 -39.06,-18.86 -103.74,-30.53 -144.11,-59.1 23.06,-181.49 281.05,-234.09 428.98,-218.9 -9.34,64.91 0.14,118.53 41.82,167.38 17.06,20 25.7,17.19 35.29,39.29 -23.18,16.19 -42.92,32.62 -69.87,50.85 38.69,-13.07 54.53,-31.45 82.26,-49.71 26.81,13.23 57.7,28.24 92.59,37.86 27.95,7.71 72.08,12.23 101.88,23.95 1.14,0.45 3.31,1.31 4.79,2.27 -24.71,55.21 -73.82,96.72 -120.02,125.7 -82.74,51.9 -120.99,37.29 -186.2,66.15 75.74,-0.79 139.15,-24.12 198.15,-61.25l75.22 -56.93c20.47,-19.94 34.61,-46.65 58.77,-75.61l53.68 1.75c-165.74,245.26 -162.87,405.4 -171.28,418.47 -1.22,1.14 -3.24,1.07 -3.86,3.19 -0.62,2.11 -3.03,2.5 -3.9,3.11l-75.37 38.42c-27.55,12.87 -63.72,33.08 -97.3,34.68 -46.08,-50.17 -77.62,-115.94 -130.12,-155.54 -182.6,-137.72 -317.93,116.14 -145.74,185.06 81.41,32.58 165.13,-2.11 242.74,-10.28 39.07,43.59 62.83,106.08 98.49,153.18 37.36,49.35 75.76,86.92 125.14,126.55 100.67,80.79 280.69,90.4 381.49,9.86 -34.63,32.25 -118.7,51.81 -181.39,50.58 -225.01,-4.44 -303.86,-273.62 -385.15,-342.74 10.18,-15.04 1.4,-6.31 16.48,-16.2 0.62,-0.41 21.45,-9.24 23.59,-10.11 44.42,-18.01 93.99,-52.23 138.14,-59.95 1.7,97.23 26.92,146.6 79.17,190.39l7.1 5.9c59.54,46.21 152.65,22.02 212.34,21.75 -38.01,1.46 -72.5,8.75 -118.19,4.57 -23.73,-2.17 -32.97,-5.31 -53.16,-14.47 -95.54,-43.36 -103.59,-191.4 -81.18,-232.11 29.12,-52.91 453.89,-219.02 447.57,39.84 -1.83,74.79 -40.19,107.87 -80.58,149.01 150.49,-87.13 121.18,-374.8 -193.88,-275.18 -30.96,9.79 -52.94,18.02 -80.62,31.46 -26.8,13.01 -54.35,33.9 -84.34,34.71 -4.94,-55.97 47.71,-161.11 70.52,-207.89 14.2,-29.12 33.15,-62.01 50.09,-89.24 19.8,-31.82 44.67,-59.79 57.19,-86.86 151.43,-5.31 306.55,-37.44 428.31,-95.99 59.28,-28.51 117.6,-66.47 152.55,-105.83 34.08,-38.38 85.37,-132.71 -7.07,-157.54 -124.9,-33.55 -323.68,66.97 -394.41,120.1 -60.64,45.54 -119.83,96.57 -171.05,153.23 -33.64,37.21 -49.56,88.63 -112.75,76.7 -9.91,-15.62 13.16,-91.49 13.39,-116.48 1.39,-146.64 -92.61,-204.96 -140.89,-297.75 64.12,-15.92 123.6,-32.89 193.85,-13.78 60.9,16.57 102.91,58.8 63.16,136.29 49.18,-76.97 -5.26,-131.34 -77.17,-148.61 -37.22,-8.94 -87.89,-9.02 -126.39,-3.61 -93.41,13.13 -69.67,23.36 -123.99,-57.51 -31.46,-46.83 -61.4,-94.29 -53.59,-157.97 19.47,-158.65 259.72,-206.84 376.63,-158.92 173.07,70.93 11.66,280.24 -170.83,244.68 -95.78,-18.66 -93.59,-95.5 -6.03,-144.53 -134.39,26.2 -84.11,235.48 133.39,159.99 134.36,-46.64 181.59,-210.67 49.1,-265.04 -190.32,-78.11 -568.58,72.01 -333.12,415.27z"/>
   </g>
   <g>
    <path class="fil0 str0" d="M20.04 510.21l32.76 -49.33c24.84,-29.56 58.32,-47.59 94.47,-57.93 77.65,-22.21 131.84,3.38 190.38,29.68 7.79,-8.63 7.01,-10.07 16.07,-14.68 -70.38,-62.8 -207.72,-52.96 -284.59,12.97l-49.08 79.29z"/>
    <path id="_1_0" class="fil1" d="M20.04 510.21l32.76 -49.33c24.84,-29.56 58.32,-47.59 94.47,-57.93 77.65,-22.21 131.84,3.38 190.38,29.68 7.79,-8.63 7.01,-10.07 16.07,-14.68 -70.38,-62.8 -207.72,-52.96 -284.59,12.97l-49.08 79.29z"/>
   </g>
  </g>
 </g>
</svg>
