<svg width="357" height="106" viewBox="0 0 357 106" fill="none" xmlns="http://www.w3.org/2000/svg">
<path d="M98.9 58.51C98.9 59.33 98.73 60.08 98.39 60.76C98.07 61.44 97.62 62.02 97.04 62.5C96.48 62.98 95.82 63.35 95.06 63.61C94.32 63.87 93.52 64 92.66 64H82.55V42.7H93.14C93.88 42.7 94.55 42.86 95.15 43.18C95.75 43.5 96.26 43.92 96.68 44.44C97.1 44.94 97.42 45.52 97.64 46.18C97.88 46.82 98 47.47 98 48.13C98 49.19 97.73 50.17 97.19 51.07C96.67 51.97 95.92 52.64 94.94 53.08C96.16 53.44 97.12 54.11 97.82 55.09C98.54 56.05 98.9 57.19 98.9 58.51ZM96.17 58.03C96.17 57.55 96.08 57.09 95.9 56.65C95.74 56.19 95.51 55.79 95.21 55.45C94.93 55.11 94.59 54.84 94.19 54.64C93.79 54.44 93.35 54.34 92.87 54.34H85.25V61.66H92.66C93.16 61.66 93.62 61.56 94.04 61.36C94.46 61.16 94.83 60.9 95.15 60.58C95.47 60.24 95.72 59.85 95.9 59.41C96.08 58.97 96.17 58.51 96.17 58.03ZM85.25 45.04V52.15H92.03C92.51 52.15 92.95 52.06 93.35 51.88C93.75 51.68 94.09 51.42 94.37 51.1C94.67 50.78 94.9 50.41 95.06 49.99C95.24 49.55 95.33 49.09 95.33 48.61C95.33 48.11 95.25 47.64 95.09 47.2C94.93 46.76 94.71 46.38 94.43 46.06C94.17 45.74 93.84 45.49 93.44 45.31C93.06 45.13 92.65 45.04 92.21 45.04H85.25ZM117.317 64.15C115.817 64.15 114.447 63.85 113.207 63.25C111.987 62.63 110.937 61.82 110.057 60.82C109.177 59.8 108.497 58.64 108.017 57.34C107.537 56.04 107.297 54.71 107.297 53.35C107.297 51.93 107.547 50.57 108.047 49.27C108.567 47.97 109.277 46.82 110.177 45.82C111.077 44.82 112.137 44.03 113.357 43.45C114.597 42.85 115.937 42.55 117.377 42.55C118.877 42.55 120.237 42.87 121.457 43.51C122.677 44.13 123.727 44.95 124.607 45.97C125.487 46.99 126.167 48.15 126.647 49.45C127.127 50.73 127.367 52.04 127.367 53.38C127.367 54.8 127.107 56.16 126.587 57.46C126.087 58.76 125.387 59.91 124.487 60.91C123.607 61.89 122.547 62.68 121.307 63.28C120.087 63.86 118.757 64.15 117.317 64.15ZM110.027 53.35C110.027 54.43 110.197 55.48 110.537 56.5C110.897 57.5 111.397 58.39 112.037 59.17C112.677 59.95 113.447 60.57 114.347 61.03C115.247 61.49 116.247 61.72 117.347 61.72C118.487 61.72 119.507 61.48 120.407 61C121.307 60.5 122.067 59.86 122.687 59.08C123.327 58.28 123.807 57.38 124.127 56.38C124.467 55.38 124.637 54.37 124.637 53.35C124.637 52.27 124.457 51.23 124.097 50.23C123.757 49.21 123.257 48.32 122.597 47.56C121.957 46.78 121.187 46.16 120.287 45.7C119.407 45.24 118.427 45.01 117.347 45.01C116.207 45.01 115.187 45.25 114.287 45.73C113.387 46.21 112.617 46.84 111.977 47.62C111.357 48.4 110.877 49.29 110.537 50.29C110.197 51.29 110.027 52.31 110.027 53.35ZM145.758 64.15C144.258 64.15 142.888 63.85 141.648 63.25C140.428 62.63 139.378 61.82 138.498 60.82C137.618 59.8 136.938 58.64 136.458 57.34C135.978 56.04 135.738 54.71 135.738 53.35C135.738 51.93 135.988 50.57 136.488 49.27C137.008 47.97 137.718 46.82 138.618 45.82C139.518 44.82 140.578 44.03 141.798 43.45C143.038 42.85 144.378 42.55 145.818 42.55C147.318 42.55 148.678 42.87 149.898 43.51C151.118 44.13 152.168 44.95 153.048 45.97C153.928 46.99 154.608 48.15 155.088 49.45C155.568 50.73 155.808 52.04 155.808 53.38C155.808 54.8 155.548 56.16 155.028 57.46C154.528 58.76 153.828 59.91 152.928 60.91C152.048 61.89 150.988 62.68 149.748 63.28C148.528 63.86 147.198 64.15 145.758 64.15ZM138.468 53.35C138.468 54.43 138.638 55.48 138.978 56.5C139.338 57.5 139.838 58.39 140.478 59.17C141.118 59.95 141.888 60.57 142.788 61.03C143.688 61.49 144.688 61.72 145.788 61.72C146.928 61.72 147.948 61.48 148.848 61C149.748 60.5 150.508 59.86 151.128 59.08C151.768 58.28 152.248 57.38 152.568 56.38C152.908 55.38 153.078 54.37 153.078 53.35C153.078 52.27 152.898 51.23 152.538 50.23C152.198 49.21 151.698 48.32 151.038 47.56C150.398 46.78 149.628 46.16 148.728 45.7C147.848 45.24 146.868 45.01 145.788 45.01C144.648 45.01 143.628 45.25 142.728 45.73C141.828 46.21 141.058 46.84 140.418 47.62C139.798 48.4 139.318 49.29 138.978 50.29C138.638 51.29 138.468 52.31 138.468 53.35ZM165.56 64V42.73H168.26V54.49L179.24 42.7H182.15L173.6 52.09L182.63 64H179.69L171.95 53.65L168.26 57.49V64H165.56ZM213.126 61.72C214.366 61.72 215.396 61.48 216.216 61C217.036 60.52 217.686 59.9 218.166 59.14C218.666 58.36 219.016 57.48 219.216 56.5C219.416 55.5 219.516 54.49 219.516 53.47V42.7H222.216V53.47C222.216 54.91 222.046 56.28 221.706 57.58C221.386 58.86 220.866 59.99 220.146 60.97C219.426 61.95 218.486 62.73 217.326 63.31C216.186 63.87 214.796 64.15 213.156 64.15C211.456 64.15 210.026 63.85 208.866 63.25C207.706 62.65 206.766 61.86 206.046 60.88C205.346 59.88 204.836 58.74 204.516 57.46C204.216 56.16 204.066 54.83 204.066 53.47V42.7H206.766V53.47C206.766 54.53 206.866 55.56 207.066 56.56C207.286 57.54 207.636 58.41 208.116 59.17C208.616 59.93 209.266 60.55 210.066 61.03C210.886 61.49 211.906 61.72 213.126 61.72ZM245.523 47.17C245.283 46.89 244.963 46.62 244.563 46.36C244.163 46.1 243.713 45.87 243.213 45.67C242.713 45.45 242.163 45.28 241.563 45.16C240.983 45.02 240.373 44.95 239.733 44.95C238.073 44.95 236.853 45.26 236.073 45.88C235.313 46.5 234.933 47.35 234.933 48.43C234.933 49.01 235.043 49.49 235.263 49.87C235.483 50.25 235.823 50.58 236.283 50.86C236.763 51.12 237.353 51.35 238.053 51.55C238.753 51.75 239.583 51.96 240.543 52.18C241.643 52.42 242.633 52.7 243.513 53.02C244.413 53.32 245.173 53.7 245.793 54.16C246.433 54.62 246.913 55.18 247.233 55.84C247.573 56.5 247.743 57.31 247.743 58.27C247.743 59.29 247.543 60.18 247.143 60.94C246.743 61.68 246.193 62.3 245.493 62.8C244.813 63.28 244.003 63.64 243.063 63.88C242.123 64.1 241.103 64.21 240.003 64.21C238.363 64.21 236.803 63.96 235.323 63.46C233.863 62.94 232.533 62.19 231.333 61.21L232.623 58.93C232.943 59.27 233.353 59.61 233.853 59.95C234.373 60.29 234.953 60.6 235.593 60.88C236.253 61.14 236.953 61.36 237.693 61.54C238.453 61.7 239.243 61.78 240.063 61.78C241.583 61.78 242.763 61.51 243.603 60.97C244.443 60.43 244.863 59.62 244.863 58.54C244.863 57.94 244.723 57.44 244.443 57.04C244.183 56.62 243.793 56.26 243.273 55.96C242.753 55.66 242.103 55.4 241.323 55.18C240.563 54.94 239.693 54.7 238.713 54.46C237.633 54.2 236.683 53.92 235.863 53.62C235.043 53.32 234.353 52.96 233.793 52.54C233.253 52.12 232.843 51.61 232.563 51.01C232.283 50.41 232.143 49.69 232.143 48.85C232.143 47.83 232.333 46.93 232.713 46.15C233.093 45.37 233.623 44.71 234.303 44.17C234.983 43.63 235.793 43.23 236.733 42.97C237.673 42.69 238.693 42.55 239.793 42.55C241.233 42.55 242.533 42.77 243.693 43.21C244.853 43.65 245.883 44.24 246.783 44.98L245.523 47.17ZM273.582 47.74V64H270.882V42.7H272.982L286.182 59.29V42.73H288.882V64H286.602L273.582 47.74ZM308.608 64.15C307.108 64.15 305.738 63.85 304.498 63.25C303.278 62.63 302.228 61.82 301.348 60.82C300.468 59.8 299.788 58.64 299.308 57.34C298.828 56.04 298.588 54.71 298.588 53.35C298.588 51.93 298.838 50.57 299.338 49.27C299.858 47.97 300.568 46.82 301.468 45.82C302.368 44.82 303.428 44.03 304.648 43.45C305.888 42.85 307.228 42.55 308.668 42.55C310.168 42.55 311.528 42.87 312.748 43.51C313.968 44.13 315.018 44.95 315.898 45.97C316.778 46.99 317.458 48.15 317.938 49.45C318.418 50.73 318.658 52.04 318.658 53.38C318.658 54.8 318.398 56.16 317.878 57.46C317.378 58.76 316.678 59.91 315.778 60.91C314.898 61.89 313.838 62.68 312.598 63.28C311.378 63.86 310.048 64.15 308.608 64.15ZM301.318 53.35C301.318 54.43 301.488 55.48 301.828 56.5C302.188 57.5 302.688 58.39 303.328 59.17C303.968 59.95 304.738 60.57 305.638 61.03C306.538 61.49 307.538 61.72 308.638 61.72C309.778 61.72 310.798 61.48 311.698 61C312.598 60.5 313.358 59.86 313.978 59.08C314.618 58.28 315.098 57.38 315.418 56.38C315.758 55.38 315.928 54.37 315.928 53.35C315.928 52.27 315.748 51.23 315.388 50.23C315.048 49.21 314.548 48.32 313.888 47.56C313.248 46.78 312.478 46.16 311.578 45.7C310.698 45.24 309.718 45.01 308.638 45.01C307.498 45.01 306.478 45.25 305.578 45.73C304.678 46.21 303.908 46.84 303.268 47.62C302.648 48.4 302.168 49.29 301.828 50.29C301.488 51.29 301.318 52.31 301.318 53.35ZM335.389 42.82H337.939L340.759 50.23L343.609 42.82H346.159L342.469 52.09L346.129 60.88L353.329 42.7H356.269L347.359 64H345.019L340.789 53.95L336.529 64H334.189L325.309 42.7H328.219L335.449 60.88L339.079 52.09L335.389 42.82Z" fill="white"/>
<path d="M54.2264 60.4096C58.2175 60.4096 61.4529 57.1839 61.4529 53.2048C61.4529 49.2257 58.2175 46 54.2264 46C50.2354 46 47 49.2257 47 53.2048C47 57.1839 50.2354 60.4096 54.2264 60.4096Z" fill="#D6A663"/>
<path d="M101 33.8736C93.4081 14.619 74.6929 1 52.8085 1C24.1954 1 1 24.2812 1 53C1 81.7188 24.1954 105 52.8085 105C73.6593 105 91.6331 92.6371 99.8507 74.8161" stroke="#D6A663" stroke-width="2"/>
</svg>
