<svg width="323" height="106" viewBox="0 0 323 106" fill="none" xmlns="http://www.w3.org/2000/svg">
<path d="M81.17 53.2C81.17 51.92 81.39 50.65 81.83 49.39C82.29 48.11 82.95 46.97 83.81 45.97C84.69 44.95 85.76 44.13 87.02 43.51C88.28 42.89 89.71 42.58 91.31 42.58C93.21 42.58 94.84 43.01 96.2 43.87C97.56 44.73 98.57 45.85 99.23 47.23L97.1 48.61C96.78 47.93 96.39 47.36 95.93 46.9C95.49 46.44 95 46.07 94.46 45.79C93.94 45.51 93.4 45.31 92.84 45.19C92.28 45.07 91.73 45.01 91.19 45.01C90.01 45.01 88.96 45.26 88.04 45.76C87.14 46.24 86.38 46.88 85.76 47.68C85.14 48.46 84.67 49.35 84.35 50.35C84.05 51.33 83.9 52.32 83.9 53.32C83.9 54.44 84.08 55.51 84.44 56.53C84.82 57.53 85.34 58.42 86 59.2C86.66 59.98 87.44 60.6 88.34 61.06C89.24 61.52 90.22 61.75 91.28 61.75C91.84 61.75 92.41 61.68 92.99 61.54C93.59 61.4 94.16 61.18 94.7 60.88C95.24 60.56 95.74 60.17 96.2 59.71C96.68 59.23 97.07 58.66 97.37 58L99.62 59.23C99.28 60.03 98.8 60.74 98.18 61.36C97.58 61.96 96.89 62.47 96.11 62.89C95.35 63.31 94.54 63.63 93.68 63.85C92.82 64.07 91.98 64.18 91.16 64.18C89.7 64.18 88.36 63.86 87.14 63.22C85.92 62.58 84.86 61.75 83.96 60.73C83.08 59.69 82.39 58.52 81.89 57.22C81.41 55.9 81.17 54.56 81.17 53.2ZM117.405 64.15C115.905 64.15 114.535 63.85 113.295 63.25C112.075 62.63 111.025 61.82 110.145 60.82C109.265 59.8 108.585 58.64 108.105 57.34C107.625 56.04 107.385 54.71 107.385 53.35C107.385 51.93 107.635 50.57 108.135 49.27C108.655 47.97 109.365 46.82 110.265 45.82C111.165 44.82 112.225 44.03 113.445 43.45C114.685 42.85 116.025 42.55 117.465 42.55C118.965 42.55 120.325 42.87 121.545 43.51C122.765 44.13 123.815 44.95 124.695 45.97C125.575 46.99 126.255 48.15 126.735 49.45C127.215 50.73 127.455 52.04 127.455 53.38C127.455 54.8 127.195 56.16 126.675 57.46C126.175 58.76 125.475 59.91 124.575 60.91C123.695 61.89 122.635 62.68 121.395 63.28C120.175 63.86 118.845 64.15 117.405 64.15ZM110.115 53.35C110.115 54.43 110.285 55.48 110.625 56.5C110.985 57.5 111.485 58.39 112.125 59.17C112.765 59.95 113.535 60.57 114.435 61.03C115.335 61.49 116.335 61.72 117.435 61.72C118.575 61.72 119.595 61.48 120.495 61C121.395 60.5 122.155 59.86 122.775 59.08C123.415 58.28 123.895 57.38 124.215 56.38C124.555 55.38 124.725 54.37 124.725 53.35C124.725 52.27 124.545 51.23 124.185 50.23C123.845 49.21 123.345 48.32 122.685 47.56C122.045 46.78 121.275 46.16 120.375 45.7C119.495 45.24 118.515 45.01 117.435 45.01C116.295 45.01 115.275 45.25 114.375 45.73C113.475 46.21 112.705 46.84 112.065 47.62C111.445 48.4 110.965 49.29 110.625 50.29C110.285 51.29 110.115 52.31 110.115 53.35ZM139.906 47.74V64H137.206V42.7H139.306L152.506 59.29V42.73H155.206V64H152.926L139.906 47.74ZM181.652 45.1H174.302V64H171.602V45.1H164.252V42.7H181.652V45.1ZM195.178 42.7H197.458L206.158 64H203.278L200.758 57.76H191.818L189.328 64H186.448L195.178 42.7ZM200.158 55.66L196.318 45.82L192.358 55.66H200.158ZM212.83 53.2C212.83 51.92 213.05 50.65 213.49 49.39C213.95 48.11 214.61 46.97 215.47 45.97C216.35 44.95 217.42 44.13 218.68 43.51C219.94 42.89 221.37 42.58 222.97 42.58C224.87 42.58 226.5 43.01 227.86 43.87C229.22 44.73 230.23 45.85 230.89 47.23L228.76 48.61C228.44 47.93 228.05 47.36 227.59 46.9C227.15 46.44 226.66 46.07 226.12 45.79C225.6 45.51 225.06 45.31 224.5 45.19C223.94 45.07 223.39 45.01 222.85 45.01C221.67 45.01 220.62 45.26 219.7 45.76C218.8 46.24 218.04 46.88 217.42 47.68C216.8 48.46 216.33 49.35 216.01 50.35C215.71 51.33 215.56 52.32 215.56 53.32C215.56 54.44 215.74 55.51 216.1 56.53C216.48 57.53 217 58.42 217.66 59.2C218.32 59.98 219.1 60.6 220 61.06C220.9 61.52 221.88 61.75 222.94 61.75C223.5 61.75 224.07 61.68 224.65 61.54C225.25 61.4 225.82 61.18 226.36 60.88C226.9 60.56 227.4 60.17 227.86 59.71C228.34 59.23 228.73 58.66 229.03 58L231.28 59.23C230.94 60.03 230.46 60.74 229.84 61.36C229.24 61.96 228.55 62.47 227.77 62.89C227.01 63.31 226.2 63.63 225.34 63.85C224.48 64.07 223.64 64.18 222.82 64.18C221.36 64.18 220.02 63.86 218.8 63.22C217.58 62.58 216.52 61.75 215.62 60.73C214.74 59.69 214.05 58.52 213.55 57.22C213.07 55.9 212.83 54.56 212.83 53.2ZM256.019 45.1H248.669V64H245.969V45.1H238.619V42.7H256.019V45.1ZM286.527 61.72C287.767 61.72 288.797 61.48 289.617 61C290.437 60.52 291.087 59.9 291.567 59.14C292.067 58.36 292.417 57.48 292.617 56.5C292.817 55.5 292.917 54.49 292.917 53.47V42.7H295.617V53.47C295.617 54.91 295.447 56.28 295.107 57.58C294.787 58.86 294.267 59.99 293.547 60.97C292.827 61.95 291.887 62.73 290.727 63.31C289.587 63.87 288.197 64.15 286.557 64.15C284.857 64.15 283.427 63.85 282.267 63.25C281.107 62.65 280.167 61.86 279.447 60.88C278.747 59.88 278.237 58.74 277.917 57.46C277.617 56.16 277.467 54.83 277.467 53.47V42.7H280.167V53.47C280.167 54.53 280.267 55.56 280.467 56.56C280.687 57.54 281.037 58.41 281.517 59.17C282.017 59.93 282.667 60.55 283.467 61.03C284.287 61.49 285.307 61.72 286.527 61.72ZM318.923 47.17C318.683 46.89 318.363 46.62 317.963 46.36C317.563 46.1 317.113 45.87 316.613 45.67C316.113 45.45 315.563 45.28 314.963 45.16C314.383 45.02 313.773 44.95 313.133 44.95C311.473 44.95 310.253 45.26 309.473 45.88C308.713 46.5 308.333 47.35 308.333 48.43C308.333 49.01 308.443 49.49 308.663 49.87C308.883 50.25 309.223 50.58 309.683 50.86C310.163 51.12 310.753 51.35 311.453 51.55C312.153 51.75 312.983 51.96 313.943 52.18C315.043 52.42 316.033 52.7 316.913 53.02C317.813 53.32 318.573 53.7 319.193 54.16C319.833 54.62 320.313 55.18 320.633 55.84C320.973 56.5 321.143 57.31 321.143 58.27C321.143 59.29 320.943 60.18 320.543 60.94C320.143 61.68 319.593 62.3 318.893 62.8C318.213 63.28 317.403 63.64 316.463 63.88C315.523 64.1 314.503 64.21 313.403 64.21C311.763 64.21 310.203 63.96 308.723 63.46C307.263 62.94 305.933 62.19 304.733 61.21L306.023 58.93C306.343 59.27 306.753 59.61 307.253 59.95C307.773 60.29 308.353 60.6 308.993 60.88C309.653 61.14 310.353 61.36 311.093 61.54C311.853 61.7 312.643 61.78 313.463 61.78C314.983 61.78 316.163 61.51 317.003 60.97C317.843 60.43 318.263 59.62 318.263 58.54C318.263 57.94 318.123 57.44 317.843 57.04C317.583 56.62 317.193 56.26 316.673 55.96C316.153 55.66 315.503 55.4 314.723 55.18C313.963 54.94 313.093 54.7 312.113 54.46C311.033 54.2 310.083 53.92 309.263 53.62C308.443 53.32 307.753 52.96 307.193 52.54C306.653 52.12 306.243 51.61 305.963 51.01C305.683 50.41 305.543 49.69 305.543 48.85C305.543 47.83 305.733 46.93 306.113 46.15C306.493 45.37 307.023 44.71 307.703 44.17C308.383 43.63 309.193 43.23 310.133 42.97C311.073 42.69 312.093 42.55 313.193 42.55C314.633 42.55 315.933 42.77 317.093 43.21C318.253 43.65 319.283 44.24 320.183 44.98L318.923 47.17Z" fill="#4C5637"/>
<path d="M54.2264 60.4096C58.2175 60.4096 61.4529 57.1839 61.4529 53.2048C61.4529 49.2257 58.2175 46 54.2264 46C50.2354 46 47 49.2257 47 53.2048C47 57.1839 50.2354 60.4096 54.2264 60.4096Z" fill="#D6A663"/>
<path d="M101 33.8736C93.4081 14.619 74.6929 1 52.8085 1C24.1954 1 1 24.2812 1 53C1 81.7188 24.1954 105 52.8085 105C73.6593 105 91.6331 92.6371 99.8507 74.8161" stroke="#D6A663" stroke-width="2"/>
</svg>
