<svg width="1206" height="231" viewBox="0 0 1206 231" fill="none" xmlns="http://www.w3.org/2000/svg">
<mask id="path-1-inside-1_417_297" fill="white">
<path d="M-2.01947e-05 231C-9.04145e-06 103.422 103.422 9.04146e-06 231 2.01947e-05L1206 0.000105432L1206 231L-2.01947e-05 231Z"/>
</mask>
<path d="M-2.00002 231C-2.00001 102.318 102.318 -1.99999 231 -1.99998L1206 -1.99989L1206 2.00011L231 2.00002C104.527 2.00001 1.99999 104.527 1.99998 231L-2.00002 231ZM1206 231L-2.01947e-05 231L1206 231ZM-2.00002 231C-2.00001 102.318 102.318 -1.99999 231 -1.99998L231 2.00002C104.527 2.00001 1.99999 104.527 1.99998 231L-2.00002 231ZM1206 0.000105432L1206 231L1206 0.000105432Z" fill="white" mask="url(#path-1-inside-1_417_297)"/>
</svg>
