<svg width="298" height="164" viewBox="0 0 298 164" fill="none" xmlns="http://www.w3.org/2000/svg">
<path d="M110.55 93V71.7H117.93C119.63 71.7 121.12 71.98 122.4 72.54C123.7 73.1 124.78 73.86 125.64 74.82C126.5 75.78 127.14 76.91 127.56 78.21C128 79.49 128.22 80.86 128.22 82.32C128.22 83.94 127.98 85.41 127.5 86.73C127.02 88.03 126.33 89.15 125.43 90.09C124.53 91.01 123.44 91.73 122.16 92.25C120.9 92.75 119.49 93 117.93 93H110.55ZM125.49 82.32C125.49 81.12 125.32 80.02 124.98 79.02C124.66 78 124.17 77.13 123.51 76.41C122.87 75.69 122.08 75.13 121.14 74.73C120.2 74.31 119.13 74.1 117.93 74.1H113.25V90.6H117.93C119.15 90.6 120.23 90.39 121.17 89.97C122.13 89.55 122.92 88.97 123.54 88.23C124.18 87.49 124.66 86.62 124.98 85.62C125.32 84.6 125.49 83.5 125.49 82.32ZM138.025 93V71.7H140.725V93H138.025ZM164.328 76.17C164.088 75.89 163.768 75.62 163.368 75.36C162.968 75.1 162.518 74.87 162.018 74.67C161.518 74.45 160.968 74.28 160.368 74.16C159.788 74.02 159.178 73.95 158.538 73.95C156.878 73.95 155.658 74.26 154.878 74.88C154.118 75.5 153.738 76.35 153.738 77.43C153.738 78.01 153.848 78.49 154.068 78.87C154.288 79.25 154.628 79.58 155.088 79.86C155.568 80.12 156.158 80.35 156.858 80.55C157.558 80.75 158.388 80.96 159.348 81.18C160.448 81.42 161.438 81.7 162.318 82.02C163.218 82.32 163.978 82.7 164.598 83.16C165.238 83.62 165.718 84.18 166.038 84.84C166.378 85.5 166.548 86.31 166.548 87.27C166.548 88.29 166.348 89.18 165.948 89.94C165.548 90.68 164.998 91.3 164.298 91.8C163.618 92.28 162.808 92.64 161.868 92.88C160.928 93.1 159.908 93.21 158.808 93.21C157.168 93.21 155.608 92.96 154.128 92.46C152.668 91.94 151.338 91.19 150.138 90.21L151.428 87.93C151.748 88.27 152.158 88.61 152.658 88.95C153.178 89.29 153.758 89.6 154.398 89.88C155.058 90.14 155.758 90.36 156.498 90.54C157.258 90.7 158.048 90.78 158.868 90.78C160.388 90.78 161.568 90.51 162.408 89.97C163.248 89.43 163.668 88.62 163.668 87.54C163.668 86.94 163.528 86.44 163.248 86.04C162.988 85.62 162.598 85.26 162.078 84.96C161.558 84.66 160.908 84.4 160.128 84.18C159.368 83.94 158.498 83.7 157.518 83.46C156.438 83.2 155.488 82.92 154.668 82.62C153.848 82.32 153.158 81.96 152.598 81.54C152.058 81.12 151.648 80.61 151.368 80.01C151.088 79.41 150.948 78.69 150.948 77.85C150.948 76.83 151.138 75.93 151.518 75.15C151.898 74.37 152.428 73.71 153.108 73.17C153.788 72.63 154.598 72.23 155.538 71.97C156.478 71.69 157.498 71.55 158.598 71.55C160.038 71.55 161.338 71.77 162.498 72.21C163.658 72.65 164.688 73.24 165.588 73.98L164.328 76.17ZM174.719 82.2C174.719 80.92 174.939 79.65 175.379 78.39C175.839 77.11 176.499 75.97 177.359 74.97C178.239 73.95 179.309 73.13 180.569 72.51C181.829 71.89 183.259 71.58 184.859 71.58C186.759 71.58 188.389 72.01 189.749 72.87C191.109 73.73 192.119 74.85 192.779 76.23L190.649 77.61C190.329 76.93 189.939 76.36 189.479 75.9C189.039 75.44 188.549 75.07 188.009 74.79C187.489 74.51 186.949 74.31 186.389 74.19C185.829 74.07 185.279 74.01 184.739 74.01C183.559 74.01 182.509 74.26 181.589 74.76C180.689 75.24 179.929 75.88 179.309 76.68C178.689 77.46 178.219 78.35 177.899 79.35C177.599 80.33 177.449 81.32 177.449 82.32C177.449 83.44 177.629 84.51 177.989 85.53C178.369 86.53 178.889 87.42 179.549 88.2C180.209 88.98 180.989 89.6 181.889 90.06C182.789 90.52 183.769 90.75 184.829 90.75C185.389 90.75 185.959 90.68 186.539 90.54C187.139 90.4 187.709 90.18 188.249 89.88C188.789 89.56 189.289 89.17 189.749 88.71C190.229 88.23 190.619 87.66 190.919 87L193.169 88.23C192.829 89.03 192.349 89.74 191.729 90.36C191.129 90.96 190.439 91.47 189.659 91.89C188.899 92.31 188.089 92.63 187.229 92.85C186.369 93.07 185.529 93.18 184.709 93.18C183.249 93.18 181.909 92.86 180.689 92.22C179.469 91.58 178.409 90.75 177.509 89.73C176.629 88.69 175.939 87.52 175.439 86.22C174.959 84.9 174.719 83.56 174.719 82.2ZM210.954 93.15C209.454 93.15 208.084 92.85 206.844 92.25C205.624 91.63 204.574 90.82 203.694 89.82C202.814 88.8 202.134 87.64 201.654 86.34C201.174 85.04 200.934 83.71 200.934 82.35C200.934 80.93 201.184 79.57 201.684 78.27C202.204 76.97 202.914 75.82 203.814 74.82C204.714 73.82 205.774 73.03 206.994 72.45C208.234 71.85 209.574 71.55 211.014 71.55C212.514 71.55 213.874 71.87 215.094 72.51C216.314 73.13 217.364 73.95 218.244 74.97C219.124 75.99 219.804 77.15 220.284 78.45C220.764 79.73 221.004 81.04 221.004 82.38C221.004 83.8 220.744 85.16 220.224 86.46C219.724 87.76 219.024 88.91 218.124 89.91C217.244 90.89 216.184 91.68 214.944 92.28C213.724 92.86 212.394 93.15 210.954 93.15ZM203.664 82.35C203.664 83.43 203.834 84.48 204.174 85.5C204.534 86.5 205.034 87.39 205.674 88.17C206.314 88.95 207.084 89.57 207.984 90.03C208.884 90.49 209.884 90.72 210.984 90.72C212.124 90.72 213.144 90.48 214.044 90C214.944 89.5 215.704 88.86 216.324 88.08C216.964 87.28 217.444 86.38 217.764 85.38C218.104 84.38 218.274 83.37 218.274 82.35C218.274 81.27 218.094 80.23 217.734 79.23C217.394 78.21 216.894 77.32 216.234 76.56C215.594 75.78 214.824 75.16 213.924 74.7C213.044 74.24 212.064 74.01 210.984 74.01C209.844 74.01 208.824 74.25 207.924 74.73C207.024 75.21 206.254 75.84 205.614 76.62C204.994 77.4 204.514 78.29 204.174 79.29C203.834 80.29 203.664 81.31 203.664 82.35ZM230.535 71.7L237.585 89.61L244.605 71.7H247.455L238.755 93H236.415L227.685 71.7H230.535ZM270.785 90.6V93H256.325V71.7H270.515V74.1H259.025V81H269.015V83.25H259.025V90.6H270.785ZM280.489 93V71.7H289.609C290.549 71.7 291.409 71.9 292.189 72.3C292.989 72.68 293.669 73.2 294.229 73.86C294.809 74.5 295.259 75.23 295.579 76.05C295.899 76.85 296.059 77.67 296.059 78.51C296.059 79.25 295.949 79.97 295.729 80.67C295.529 81.35 295.229 81.97 294.829 82.53C294.449 83.09 293.979 83.57 293.419 83.97C292.879 84.37 292.269 84.66 291.589 84.84L296.749 93H293.689L288.829 85.35H283.189V93H280.489ZM283.189 82.95H289.639C290.199 82.95 290.699 82.83 291.139 82.59C291.599 82.35 291.989 82.03 292.309 81.63C292.629 81.21 292.879 80.73 293.059 80.19C293.239 79.65 293.329 79.09 293.329 78.51C293.329 77.91 293.219 77.35 292.999 76.83C292.799 76.29 292.519 75.82 292.159 75.42C291.819 75 291.409 74.68 290.929 74.46C290.469 74.22 289.979 74.1 289.459 74.1H283.189V82.95Z" fill="white"/>
<path d="M82.2264 89.4096C86.2175 89.4096 89.4529 86.1839 89.4529 82.2048C89.4529 78.2257 86.2175 75 82.2264 75C78.2354 75 75 78.2257 75 82.2048C75 86.1839 78.2354 89.4096 82.2264 89.4096Z" fill="#D6A663"/>
<path d="M157 52.2069C145.157 22.2142 115.961 1 81.8212 1C37.1849 1 1 37.2649 1 82C1 126.735 37.1849 163 81.8212 163C114.348 163 142.388 143.742 155.207 115.983" stroke="#D6A663" stroke-width="2"/>
</svg>
