<svg width="327" height="106" viewBox="0 0 327 106" fill="none" xmlns="http://www.w3.org/2000/svg">
<path d="M82.55 64V42.7H85.25V61.6H97.13V64H82.55ZM120.53 61.6V64H106.07V42.7H120.26V45.1H108.77V52H118.76V54.25H108.77V61.6H120.53ZM136.714 42.7H138.994L147.694 64H144.814L142.294 57.76H133.354L130.864 64H127.984L136.714 42.7ZM141.694 55.66L137.854 45.82L133.894 55.66H141.694ZM156.536 64V42.7H165.656C166.596 42.7 167.456 42.9 168.236 43.3C169.016 43.68 169.696 44.2 170.276 44.86C170.856 45.5 171.306 46.23 171.626 47.05C171.946 47.85 172.106 48.67 172.106 49.51C172.106 50.49 171.916 51.42 171.536 52.3C171.176 53.18 170.656 53.93 169.976 54.55C169.316 55.17 168.536 55.6 167.636 55.84L172.796 64H169.736L164.876 56.35H159.236V64H156.536ZM159.236 53.95H165.686C166.426 53.95 167.066 53.75 167.606 53.35C168.166 52.93 168.596 52.38 168.896 51.7C169.216 51.02 169.376 50.29 169.376 49.51C169.376 48.71 169.196 47.98 168.836 47.32C168.476 46.64 168.006 46.1 167.426 45.7C166.846 45.3 166.206 45.1 165.506 45.1H159.236V53.95ZM184.953 47.68V64H182.253V42.7H184.533L197.553 59.35V42.73H200.253V64H197.793L184.953 47.68ZM243.347 64V47.74L236.327 60.25H234.677L227.627 47.74V64H224.927V42.7H227.777L235.487 56.53L243.227 42.7H246.047V64H243.347ZM265.788 64.15C264.288 64.15 262.928 63.85 261.708 63.25C260.488 62.65 259.428 61.84 258.528 60.82C257.648 59.78 256.968 58.62 256.488 57.34C256.008 56.04 255.768 54.71 255.768 53.35C255.768 51.93 256.018 50.58 256.518 49.3C257.038 48 257.748 46.85 258.648 45.85C259.568 44.83 260.638 44.03 261.858 43.45C263.078 42.85 264.408 42.55 265.848 42.55C267.348 42.55 268.708 42.86 269.928 43.48C271.148 44.1 272.198 44.93 273.078 45.97C273.958 47.01 274.638 48.17 275.118 49.45C275.598 50.73 275.838 52.04 275.838 53.38C275.838 54.8 275.588 56.16 275.088 57.46C274.588 58.74 273.878 59.89 272.958 60.91C272.058 61.91 270.998 62.7 269.778 63.28C268.558 63.86 267.228 64.15 265.788 64.15ZM258.498 53.35C258.498 54.43 258.668 55.48 259.008 56.5C259.368 57.5 259.868 58.39 260.508 59.17C261.148 59.95 261.918 60.57 262.818 61.03C263.718 61.49 264.718 61.72 265.818 61.72C266.958 61.72 267.978 61.48 268.878 61C269.778 60.52 270.538 59.88 271.158 59.08C271.798 58.28 272.278 57.38 272.598 56.38C272.938 55.38 273.108 54.37 273.108 53.35C273.108 52.27 272.928 51.23 272.568 50.23C272.228 49.23 271.728 48.34 271.068 47.56C270.428 46.76 269.658 46.14 268.758 45.7C267.878 45.24 266.898 45.01 265.818 45.01C264.678 45.01 263.658 45.25 262.758 45.73C261.858 46.19 261.088 46.82 260.448 47.62C259.828 48.42 259.348 49.32 259.008 50.32C258.668 51.3 258.498 52.31 258.498 53.35ZM285.589 64V42.7H294.709C295.649 42.7 296.509 42.9 297.289 43.3C298.069 43.68 298.749 44.2 299.329 44.86C299.909 45.5 300.359 46.23 300.679 47.05C300.999 47.85 301.159 48.67 301.159 49.51C301.159 50.49 300.969 51.42 300.589 52.3C300.229 53.18 299.709 53.93 299.029 54.55C298.369 55.17 297.589 55.6 296.689 55.84L301.849 64H298.789L293.929 56.35H288.289V64H285.589ZM288.289 53.95H294.739C295.479 53.95 296.119 53.75 296.659 53.35C297.219 52.93 297.649 52.38 297.949 51.7C298.269 51.02 298.429 50.29 298.429 49.51C298.429 48.71 298.249 47.98 297.889 47.32C297.529 46.64 297.059 46.1 296.479 45.7C295.899 45.3 295.259 45.1 294.559 45.1H288.289V53.95ZM325.766 61.6V64H311.306V42.7H325.496V45.1H314.006V52H323.996V54.25H314.006V61.6H325.766Z" fill="#666F52"/>
<path d="M54.2264 60.4096C58.2175 60.4096 61.4529 57.1839 61.4529 53.2048C61.4529 49.2257 58.2175 46 54.2264 46C50.2354 46 47 49.2257 47 53.2048C47 57.1839 50.2354 60.4096 54.2264 60.4096Z" fill="#D6A663"/>
<path d="M101 33.8736C93.4081 14.619 74.6929 1 52.8085 1C24.1954 1 1 24.2812 1 53C1 81.7188 24.1954 105 52.8085 105C73.6593 105 91.6331 92.6371 99.8507 74.8161" stroke="#D6A663" stroke-width="2"/>
</svg>
